<?xml version="1.0" encoding="UTF-8" standalone="no"?>
<!-- Created with Inkscape (http://www.inkscape.org/) -->

<svg
   width="210mm"
   height="297mm"
   viewBox="0 0 210 297"
   version="1.1"
   id="svg1"
   sodipodi:docname="big_facade.svg"
   inkscape:version="1.3.2 (091e20e, 2023-11-25, custom)"
   xmlns:inkscape="http://www.inkscape.org/namespaces/inkscape"
   xmlns:sodipodi="http://sodipodi.sourceforge.net/DTD/sodipodi-0.dtd"
   xmlns="http://www.w3.org/2000/svg"
   xmlns:svg="http://www.w3.org/2000/svg">
  <sodipodi:namedview
     id="namedview1"
     pagecolor="#ffffff"
     bordercolor="#666666"
     borderopacity="1.0"
     inkscape:showpageshadow="2"
     inkscape:pageopacity="0.0"
     inkscape:pagecheckerboard="0"
     inkscape:deskcolor="#d1d1d1"
     inkscape:document-units="mm"
     inkscape:zoom="1.0343421"
     inkscape:cx="396.38724"
     inkscape:cy="942.14479"
     inkscape:window-width="1920"
     inkscape:window-height="1017"
     inkscape:window-x="-8"
     inkscape:window-y="-8"
     inkscape:window-maximized="1"
     inkscape:current-layer="svg1" />
  <defs
     id="defs1" />
  <g
     inkscape:label="Layer 1"
     inkscape:groupmode="layer"
     id="layer1" />
  <g
     transform="translate(0, 297)"
     id="g85">design<g
   transform="translate(10, -10)"
   id="g84">
  <g
     id="g78">
    <path
       style="fill:none;stroke:#0000FF;stroke-width:0.01"
       d="M 100 -0 a 5 5 0 0 0 5 -5 v -65 a 5 5 0 0 0 -5 -5 h -95 a 5 5 0 0 0 -5 5 v 65 a 5 5 0 0 0 5 5 z"
       id="path57" />
    <path
       style="fill:none;stroke:#0000FF;stroke-width:0.01"
       d="M 10 -10 h 85 v -55 h -85 z"
       id="path58" />
    <g
       transform="translate(11, -11)"
       id="g69">
      <path
         style="fill:none;stroke:#0000FF;stroke-width:0.01"
         d="M 78 -0 a 5 5 0 0 0 5 -5 v -43 a 5 5 0 0 0 -5 -5 h -73 a 5 5 0 0 0 -5 5 v 43 a 5 5 0 0 0 5 5 z"
         id="path59" />
      <path
         style="fill:none;stroke:#0000FF;stroke-width:0.01"
         d="M 10 -10 h 63 v -33 h -63 z"
         id="path60" />
      <path
         style="fill:none;stroke:#0000FF;stroke-width:0.01"
         d="M 0 -26.5 l 10 -0"
         id="path61" />
      <path
         style="fill:none;stroke:#0000FF;stroke-width:0.01"
         d="M 83 -26.5 l -10 -0"
         id="path62" />
      <path
         style="fill:none;stroke:#0000FF;stroke-width:0.01"
         d="M 41.5 -0 l 0 -10"
         id="path63" />
      <path
         style="fill:none;stroke:#0000FF;stroke-width:0.01"
         d="M 41.5 -53 l 0 10"
         id="path64" />
      <g
         transform="translate(10, -5)"
         id="g65">
        <path
           style="fill:none;stroke:#0000FF;stroke-width:0.01"
           d="M 1.575 -2.728 L 1.575 -2.728 L 3.15 -0 L 1.575 2.728 L -1.575 2.728 L -3.15 0 L -1.575 -2.728 z"
           id="path65" />
      </g>
      <g
         transform="translate(73, -5)"
         id="g66">
        <path
           style="fill:none;stroke:#0000FF;stroke-width:0.01"
           d="M 1.575 -2.728 L 1.575 -2.728 L 3.15 -0 L 1.575 2.728 L -1.575 2.728 L -3.15 0 L -1.575 -2.728 z"
           id="path66" />
      </g>
      <g
         transform="translate(10, -48)"
         id="g67">
        <path
           style="fill:none;stroke:#0000FF;stroke-width:0.01"
           d="M 1.575 -2.728 L 1.575 -2.728 L 3.15 -0 L 1.575 2.728 L -1.575 2.728 L -3.15 0 L -1.575 -2.728 z"
           id="path67" />
      </g>
      <g
         transform="translate(73, -48)"
         id="g68">
        <path
           style="fill:none;stroke:#0000FF;stroke-width:0.01"
           d="M 1.575 -2.728 L 1.575 -2.728 L 3.15 -0 L 1.575 2.728 L -1.575 2.728 L -3.15 0 L -1.575 -2.728 z"
           id="path68" />
      </g>
    </g>
    <g
       transform="translate(39.3, -37.5)"
       id="g71">
      <path
         style="fill:none;stroke:#0000FF;stroke-width:0.01"
         d="M -4.65 4.65 h 9.3 m 0 -8.2 h -9.3 v 8.2"
         id="path69" />
      <g
         id="g70">
        <path
           style="fill:none;stroke:#0000FF;stroke-width:0.01"
           d="M 1.575 -2.728 L 1.575 -2.728 L 3.15 -0 L 1.575 2.728 L -1.575 2.728 L -3.15 0 L -1.575 -2.728 z"
           id="path70" />
      </g>
    </g>
    <g
       transform="translate(48.6, -37.5)"
       id="g73">
      <path
         style="fill:none;stroke:#0000FF;stroke-width:0.01"
         d="M -4.65 4.65 h 9.3 m 0 -8.2 h -9.3 v 8.2"
         id="path71" />
      <g
         id="g72">
        <path
           style="fill:none;stroke:#0000FF;stroke-width:0.01"
           d="M 1.575 -2.728 L 1.575 -2.728 L 3.15 -0 L 1.575 2.728 L -1.575 2.728 L -3.15 0 L -1.575 -2.728 z"
           id="path72" />
      </g>
    </g>
    <g
       transform="translate(57.9, -37.5)"
       id="g75">
      <path
         style="fill:none;stroke:#0000FF;stroke-width:0.01"
         d="M -4.65 4.65 h 9.3 m 0 -8.2 h -9.3 v 8.2"
         id="path73" />
      <g
         id="g74">
        <path
           style="fill:none;stroke:#0000FF;stroke-width:0.01"
           d="M 1.575 -2.728 L 1.575 -2.728 L 3.15 -0 L 1.575 2.728 L -1.575 2.728 L -3.15 0 L -1.575 -2.728 z"
           id="path74" />
      </g>
    </g>
    <g
       transform="translate(67.2, -37.5)"
       id="g77">
      <path
         style="fill:none;stroke:#0000FF;stroke-width:0.01"
         d="M -4.65 4.65 h 9.3 v -8.2 h -9.3 v 8.2"
         id="path75" />
      <g
         id="g76">
        <path
           style="fill:none;stroke:#0000FF;stroke-width:0.01"
           d="M 1.575 -2.728 L 1.575 -2.728 L 3.15 -0 L 1.575 2.728 L -1.575 2.728 L -3.15 0 L -1.575 -2.728 z"
           id="path76" />
      </g>
    </g>
  </g>
  <g
     transform="translate(0, -77)"
     id="g83">
    <path
       style="fill:none;stroke:#0000FF;stroke-width:0.01"
       d="M 100 -0 a 5 5 0 0 0 5 -5 v -65 a 5 5 0 0 0 -5 -5 h -95 a 5 5 0 0 0 -5 5 v 65 a 5 5 0 0 0 5 5 z"
       id="path78" />
    <circle
       style="fill:none;stroke:#0000FF;stroke-width:0.01"
       r="1.5"
       cx="10.0"
       cy="-5.0"
       id="circle78" />
    <g
       transform="translate(10, -5)"
       id="g79" />
    <circle
       style="fill:none;stroke:#0000FF;stroke-width:0.01"
       r="1.5"
       cx="95.0"
       cy="-5.0"
       id="circle79" />
    <g
       transform="translate(95, -5)"
       id="g80" />
    <circle
       style="fill:none;stroke:#0000FF;stroke-width:0.01"
       r="1.5"
       cx="10.0"
       cy="-70.0"
       id="circle80" />
    <g
       transform="translate(10, -70)"
       id="g81" />
    <circle
       style="fill:none;stroke:#0000FF;stroke-width:0.01"
       r="1.5"
       cx="95.0"
       cy="-70.0"
       id="circle81" />
    <g
       transform="translate(95, -70)"
       id="g82" />
    <path
       style="fill:none;stroke:#0000FF;stroke-width:0.01"
       d="M 0 -10 a 2 2 0 0 1 2 -2 h 2 a 6 6 0 0 0 6 -6 a 6 6 0 0 0 -6 -6 h -2 a 2 2 0 0 1 -2 -2"
       id="path82" />
  </g>
</g>
</g>
</svg>
